
<svg id="jiz-shape" viewBox="0 0 900 100" width="900" height="100" xmlns="http://www.w3.org/2000/svg" xmlns:xlink="http://www.w3.org/1999/xlink" version="1.1">
    <style>
        .jiz-sitem:not(:target) { display: none; }
    </style>
    <g id="d1s1bs" class="jiz-sitem">
        <path d="M0 13L13.7 26.5C27.3 40 54.7 67 82 67.8C109.3 68.7 136.7 43.3 163.8 42.7C191 42 218 66 245.2 78.2C272.3 90.3 299.7 90.7 327 83.5C354.3 76.3 381.7 61.7 409 55.2C436.3 48.7 463.7 50.3 491 44.5C518.3 38.7 545.7 25.3 573 22.5C600.3 19.7 627.7 27.3 654.8 41.5C682 55.7 709 76.3 736.2 80.7C763.3 85 790.7 73 818 73.2C845.3 73.3 872.7 85.7 886.3 91.8L900 98L900 101L886.3 101C872.7 101 845.3 101 818 101C790.7 101 763.3 101 736.2 101C709 101 682 101 654.8 101C627.7 101 600.3 101 573 101C545.7 101 518.3 101 491 101C463.7 101 436.3 101 409 101C381.7 101 354.3 101 327 101C299.7 101 272.3 101 245.2 101C218 101 191 101 163.8 101C136.7 101 109.3 101 82 101C54.7 101 27.3 101 13.7 101L0 101Z" fill="#f0f0f0"></path>
    </g>

    <g id="d1s2ts" class="jiz-sitem">
        <path d="M0 58L7.5 59.2C15 60.3 30 62.7 45 57.2C60 51.7 75 38.3 90 39.8C105 41.3 120 57.7 135 58.8C150 60 165 46 180 42.7C195 39.3 210 46.7 225 52.3C240 58 255 62 270 64.8C285 67.7 300 69.3 315 67.3C330 65.3 345 59.7 360 58.7C375 57.7 390 61.3 405 62C420 62.7 435 60.3 450 54.5C465 48.7 480 39.3 495 37.8C510 36.3 525 42.7 540 46.5C555 50.3 570 51.7 585 53.7C600 55.7 615 58.3 630 57.7C645 57 660 53 675 54.7C690 56.3 705 63.7 720 67.3C735 71 750 71 765 64.5C780 58 795 45 810 44C825 43 840 54 855 53.2C870 52.3 885 39.7 892.5 33.3L900 27L900 0L892.5 0C885 0 870 0 855 0C840 0 825 0 810 0C795 0 780 0 765 0C750 0 735 0 720 0C705 0 690 0 675 0C660 0 645 0 630 0C615 0 600 0 585 0C570 0 555 0 540 0C525 0 510 0 495 0C480 0 465 0 450 0C435 0 420 0 405 0C390 0 375 0 360 0C345 0 330 0 315 0C300 0 285 0 270 0C255 0 240 0 225 0C210 0 195 0 180 0C165 0 150 0 135 0C120 0 105 0 90 0C75 0 60 0 45 0C30 0 15 0 7.5 0L0 0Z" fill="#fff" stroke-linecap="round" stroke-linejoin="miter"></path>
    </g>

    <g id="d1s2bs" class="jiz-sitem">
        <path d="M0 40L7.5 38.8C15 37.7 30 35.3 45 40.8C60 46.3 75 59.7 90 58.2C105 56.7 120 40.3 135 39.2C150 38 165 52 180 55.3C195 58.7 210 51.3 225 45.7C240 40 255 36 270 33.2C285 30.3 300 28.7 315 30.7C330 32.7 345 38.3 360 39.3C375 40.3 390 36.7 405 36C420 35.3 435 37.7 450 43.5C465 49.3 480 58.7 495 60.2C510 61.7 525 55.3 540 51.5C555 47.7 570 46.3 585 44.3C600 42.3 615 39.7 630 40.3C645 41 660 45 675 43.3C690 41.7 705 34.3 720 30.7C735 27 750 27 765 33.5C780 40 795 53 810 54C825 55 840 44 855 44.8C870 45.7 885 58.3 892.5 64.7L900 71L900 101L892.5 101C885 101 870 101 855 101C840 101 825 101 810 101C795 101 780 101 765 101C750 101 735 101 720 101C705 101 690 101 675 101C660 101 645 101 630 101C615 101 600 101 585 101C570 101 555 101 540 101C525 101 510 101 495 101C480 101 465 101 450 101C435 101 420 101 405 101C390 101 375 101 360 101C345 101 330 101 315 101C300 101 285 101 270 101C255 101 240 101 225 101C210 101 195 101 180 101C165 101 150 101 135 101C120 101 105 101 90 101C75 101 60 101 45 101C30 101 15 101 7.5 101L0 101Z" fill="#fff" stroke-linecap="round" stroke-linejoin="miter"></path>
    </g>

    <g id="d1s3ts" class="jiz-sitem">
        <path d="M0 7L4.8 11C9.7 15 19.3 23 29 25C38.7 27 48.3 23 58 18.2C67.7 13.3 77.3 7.7 87 5.3C96.7 3 106.3 4 116 5.8C125.7 7.7 135.3 10.3 145 10.7C154.7 11 164.3 9 174 9C183.7 9 193.3 11 203 16C212.7 21 222.3 29 232 31.3C241.7 33.7 251.3 30.3 261 27.5C270.7 24.7 280.3 22.3 290 24.2C299.7 26 309.3 32 319 32.7C328.7 33.3 338.3 28.7 348 27C357.7 25.3 367.3 26.7 377 25.7C386.7 24.7 396.3 21.3 406 19C415.7 16.7 425.3 15.3 435.2 18.3C445 21.3 455 28.7 464.8 30.2C474.7 31.7 484.3 27.3 494 24.8C503.7 22.3 513.3 21.7 523 23.3C532.7 25 542.3 29 552 27.8C561.7 26.7 571.3 20.3 581 16.2C590.7 12 600.3 10 610 11.8C619.7 13.7 629.3 19.3 639 23.7C648.7 28 658.3 31 668 29.5C677.7 28 687.3 22 697 18.8C706.7 15.7 716.3 15.3 726 18.3C735.7 21.3 745.3 27.7 755 27C764.7 26.3 774.3 18.7 784 19.2C793.7 19.7 803.3 28.3 813 28.5C822.7 28.7 832.3 20.3 842 20.5C851.7 20.7 861.3 29.3 871 27.7C880.7 26 890.3 14 895.2 8L900 2L900 0L895.2 0C890.3 0 880.7 0 871 0C861.3 0 851.7 0 842 0C832.3 0 822.7 0 813 0C803.3 0 793.7 0 784 0C774.3 0 764.7 0 755 0C745.3 0 735.7 0 726 0C716.3 0 706.7 0 697 0C687.3 0 677.7 0 668 0C658.3 0 648.7 0 639 0C629.3 0 619.7 0 610 0C600.3 0 590.7 0 581 0C571.3 0 561.7 0 552 0C542.3 0 532.7 0 523 0C513.3 0 503.7 0 494 0C484.3 0 474.7 0 464.8 0C455 0 445 0 435.2 0C425.3 0 415.7 0 406 0C396.3 0 386.7 0 377 0C367.3 0 357.7 0 348 0C338.3 0 328.7 0 319 0C309.3 0 299.7 0 290 0C280.3 0 270.7 0 261 0C251.3 0 241.7 0 232 0C222.3 0 212.7 0 203 0C193.3 0 183.7 0 174 0C164.3 0 154.7 0 145 0C135.3 0 125.7 0 116 0C106.3 0 96.7 0 87 0C77.3 0 67.7 0 58 0C48.3 0 38.7 0 29 0C19.3 0 9.7 0 4.8 0L0 0Z" fill="#fff" stroke-linecap="round" stroke-linejoin="miter"></path>
    </g>

    <g id="d1s3bs" class="jiz-sitem">
        <path d="M0 99L4.8 93.7C9.7 88.3 19.3 77.7 29 77.7C38.7 77.7 48.3 88.3 58 93.7C67.7 99 77.3 99 87 97.2C96.7 95.3 106.3 91.7 116 85.7C125.7 79.7 135.3 71.3 145 67.8C154.7 64.3 164.3 65.7 174 67.3C183.7 69 193.3 71 203 74.8C212.7 78.7 222.3 84.3 232 83.5C241.7 82.7 251.3 75.3 261 73.3C270.7 71.3 280.3 74.7 290 78.3C299.7 82 309.3 86 319 85.3C328.7 84.7 338.3 79.3 348 77.8C357.7 76.3 367.3 78.7 377 82.2C386.7 85.7 396.3 90.3 406 90C415.7 89.7 425.3 84.3 435.2 81.8C445 79.3 455 79.7 464.8 81.5C474.7 83.3 484.3 86.7 494 83.5C503.7 80.3 513.3 70.7 523 68C532.7 65.3 542.3 69.7 552 71C561.7 72.3 571.3 70.7 581 72.5C590.7 74.3 600.3 79.7 610 84.7C619.7 89.7 629.3 94.3 639 90.8C648.7 87.3 658.3 75.7 668 72.3C677.7 69 687.3 74 697 78.8C706.7 83.7 716.3 88.3 726 87C735.7 85.7 745.3 78.3 755 76.8C764.7 75.3 774.3 79.7 784 77.8C793.7 76 803.3 68 813 69.5C822.7 71 832.3 82 842 88C851.7 94 861.3 95 871 90.2C880.7 85.3 890.3 74.7 895.2 69.3L900 64L900 101L895.2 101C890.3 101 880.7 101 871 101C861.3 101 851.7 101 842 101C832.3 101 822.7 101 813 101C803.3 101 793.7 101 784 101C774.3 101 764.7 101 755 101C745.3 101 735.7 101 726 101C716.3 101 706.7 101 697 101C687.3 101 677.7 101 668 101C658.3 101 648.7 101 639 101C629.3 101 619.7 101 610 101C600.3 101 590.7 101 581 101C571.3 101 561.7 101 552 101C542.3 101 532.7 101 523 101C513.3 101 503.7 101 494 101C484.3 101 474.7 101 464.8 101C455 101 445 101 435.2 101C425.3 101 415.7 101 406 101C396.3 101 386.7 101 377 101C367.3 101 357.7 101 348 101C338.3 101 328.7 101 319 101C309.3 101 299.7 101 290 101C280.3 101 270.7 101 261 101C251.3 101 241.7 101 232 101C222.3 101 212.7 101 203 101C193.3 101 183.7 101 174 101C164.3 101 154.7 101 145 101C135.3 101 125.7 101 116 101C106.3 101 96.7 101 87 101C77.3 101 67.7 101 58 101C48.3 101 38.7 101 29 101C19.3 101 9.7 101 4.8 101L0 101Z" fill="#f0f0f0" stroke-linecap="round" stroke-linejoin="miter"></path>
    </g>

</svg>